PathFileType	4	(X/Y/Z)	Patient4_TMGait_0pt2_02_left_18.trc.trc
DataRate	CameraRate	NumFrames	NumMarkers	Units	OrigDataRate	OrigDataStartFrame	OrigNumFrames
46.979865771812	46.979865771812	4	33	mm	46.979865771812	36	       141
Frame#	Time	R.Midfoot.Superior			Sacral			L.Shoulder			Chest			R.Shoulder			Neck			R.ASIS			L.ASIS			R.Thigh.Superior			R.Thigh.Lateral			R.Thigh.Inferior			R.Patella			L.Thigh.Superior			L.Thigh.Lateral			L.Thigh.Inferior			L.Patella			L.Shank.Superior			L.Shank.Lateral			L.Shank.Inferior			R.Shank.Superior			R.Shank.Lateral			R.Shank.Inferior			R.Heel			R.Midfoot.Lateral			R.Toe			L.Heel			L.Midfoot.Lateral			L.Midfoot.Superior			L.Toe			L.Elbow			L.Wrist			R.Elbow			R.Wrist			
		X1	Y1	Z1	X2	Y2	Z2	X3	Y3	Z3	X4	Y4	Z4	X5	Y5	Z5	X6	Y6	Z6	X7	Y7	Z7	X8	Y8	Z8	X9	Y9	Z9	X10	Y10	Z10	X11	Y11	Z11	X12	Y12	Z12	X13	Y13	Z13	X14	Y14	Z14	X15	Y15	Z15	X16	Y16	Z16	X17	Y17	Z17	X18	Y18	Z18	X19	Y19	Z19	X20	Y20	Z20	X21	Y21	Z21	X22	Y22	Z22	X23	Y23	Z23	X24	Y24	Z24	X25	Y25	Z25	X26	Y26	Z26	X27	Y27	Z27	X28	Y28	Z28	X29	Y29	Z29	X30	Y30	Z30	X31	Y31	Z31	X32	Y32	Z32	X33	Y33	Z33	

36	41.735000000000	976.786892467458	99.150764619100	602.118013445896	916.925989203042	1003.884097985731	507.388051749166	1034.782753633756	1422.811182261600	278.862757292169	1178.909239418368	1360.788897144494	408.407059624136	1143.606846283549	1443.428969212844	591.559928660700	1053.849279116135	1489.989131246198	431.299999701273	1161.066364265849	933.876736518895	576.540606653588	1096.639370846157	958.500979764483	310.308371067715	1152.858471345580	717.330156048034	551.615487164580	1060.879947290808	623.048648070558	630.599243817746	1108.754238271996	556.493054554616	543.559483509712	1088.776037207580	468.654127711357	554.463577837886	1172.579910371084	764.824439852672	339.125803914005	1101.087130502650	636.298019175641	276.360501119403	1200.222940031004	572.119982882047	332.548910942951	1209.483653090813	502.937548533826	336.700175162062	1190.777115435668	428.772294328648	326.064298728540	1111.662184950827	307.519556025122	272.757218551842	1179.660530635925	199.496109464707	336.122827274353	1041.536851639514	388.000480673345	570.704568351931	956.534268574333	305.471895502088	646.773054103660	967.533948840771	202.231600758449	586.173449623752	800.672223471559	56.525715750594	578.813236963054	887.741418185417	45.333550063117	648.077753902379	1093.884166727891	40.267362786093	626.290693808772	1066.380835495673	38.437415770293	374.494316157890	1139.507261921384	35.206913414520	292.771775363589	1221.094467005926	100.343393195963	317.801805274361	1349.781163143178	52.822980300661	289.187154742708	909.499938307247	1090.336702077773	197.100652910302	898.338231664378	829.772930013740	226.083684437737	1398.610841200475	1240.541456611675	678.602638478131	1598.636249230764	1369.759813355461	580.358928712180	
37	41.756285714286	973.676218619203	99.758595998215	602.042650720482	916.924485177347	1004.736841953285	501.264326958318	1037.327352406251	1423.197015559583	273.499254296223	1180.130882393394	1361.381273294718	404.563019587946	1142.996949569324	1444.440986317097	587.207198346627	1054.757369179465	1490.774905215095	425.990235619285	1160.493598879929	934.622142151012	572.894004254047	1098.593003603826	959.122039254944	306.031879009123	1152.578930363506	718.085504109453	548.630501571924	1060.213031371674	624.203049173645	627.574105790542	1108.819617143893	557.063554287297	541.252764448011	1088.877469119125	468.809911167778	552.635411451517	1173.423287538241	764.656897750765	335.522164544635	1101.543081871360	636.238030782009	273.163766016188	1200.062995440586	571.773571784899	330.208887980496	1209.084947479353	502.453006364138	334.838995134230	1189.737595198254	428.265919916565	324.506966047315	1109.883791501930	307.361083038813	271.561369012674	1176.622115431651	199.194384621004	335.840425385763	1040.652621847281	388.722800612547	569.070240322412	954.716967803194	307.331669991707	645.300101160123	965.115762675944	203.498557568250	585.484266099207	797.080561188156	59.426040219065	578.714358374915	884.087682494622	47.104679842865	647.935790010442	1090.069417325096	39.660519620737	626.330309152088	1062.234846552853	38.358896861506	374.489505283496	1135.341973161023	35.257797986908	292.773063028198	1216.877169217741	100.286580641244	317.913221307239	1345.561783348325	53.011333497901	289.195419125193	917.269794849551	1089.095621879839	188.103399063389	911.240572512144	828.076050772875	213.879962292978	1395.550657894170	1237.348103470704	675.549267521999	1600.120279655162	1360.690132935967	578.293739772893	
38	41.777571428571	970.669066619865	100.309855503215	602.016539213979	916.806672259800	1005.676371865284	495.157692569203	1039.988569624708	1423.742687187332	268.244833281491	1181.306505989094	1362.050653932451	400.927680024776	1142.230927799498	1445.491214561725	583.046674256798	1055.697788259943	1491.670018114190	420.827661632256	1159.784643626220	935.493658476412	569.302060703056	1100.383301603127	959.751010087373	301.809175263652	1152.259843763224	719.020238992553	545.710938104514	1059.517183008419	625.503978626551	624.605229188649	1108.918484766899	557.776822929728	539.035662496876	1089.046866517872	469.067293251254	550.942401528957	1173.871698836204	764.349369290369	331.854866997866	1101.344980599610	636.117974747310	270.033949416842	1199.256687412047	571.327879177497	327.807746894129	1207.976720223493	501.924401498139	332.892681125824	1188.081696890333	427.770586231793	322.888024790764	1107.560204701199	307.120363950807	270.484713366922	1173.323641494899	198.924613892608	335.497834424362	1039.808051076293	389.609306441839	567.553137542457	952.900877512260	309.355891138590	643.906126811627	962.787250974347	204.896974844688	584.884427430464	793.535633274211	62.412733797456	578.637358986569	880.476946752229	48.863709966640	647.831949406627	1086.317420738226	39.070795032696	626.379619523328	1058.050767643018	38.298098583746	374.526838061502	1131.127359041888	35.295413970426	292.808550525087	1212.622362694148	100.191067735457	318.017366056283	1341.294333295697	53.125881917061	289.193951835483	925.733297637041	1087.877389786562	179.319839784276	924.956061198608	826.560912058135	202.005740612018	1391.649679210766	1233.318327450551	672.965497100612	1601.262872890657	1349.734746576685	577.157867043351	
39	41.798857142857	967.765830418071	100.781701934855	602.045363679136	916.611056921342	1006.675608408958	489.070878569786	1042.724236747040	1424.426751340469	263.097270552659	1182.417134868359	1362.779329659418	397.468473146732	1141.320658202156	1446.545192711202	579.055125378729	1056.659138303350	1492.643700624488	415.819997137064	1158.969370353399	936.483201935495	565.737861074624	1102.029921415732	960.363357727515	297.626451549320	1151.912938931850	720.101383385831	542.878699444422	1058.778774803413	626.919535749317	621.695665450832	1109.064849139955	558.601837029125	536.920360829611	1089.292368710552	469.384071468974	549.402037850580	1174.021452060089	763.955712085763	328.164735947257	1100.653621503407	635.968624088772	266.953848294975	1197.962182863892	570.824708033285	325.322505290244	1206.325953633224	501.374308770246	330.844684775885	1185.970833508633	427.284814963526	321.196479659835	1104.837503403737	306.817402104414	269.466420601786	1169.849040815702	198.671027442357	335.085801931642	1039.014116465899	390.638113209586	566.166067228547	951.063219309110	311.545800375611	642.591863901962	960.555217820524	206.419268049374	584.380245027532	790.039132592768	65.447899011182	578.559812195590	876.894367159059	50.577874470804	647.755490887586	1082.602517775668	38.516589749004	626.443221934099	1053.833677002563	38.260117848001	374.588724399479	1126.873139751981	35.318555743071	292.862023479405	1208.357020458451	100.045268300978	318.108778413041	1337.002319606391	53.125410388507	289.185082051457	934.917173734441	1086.657861855287	170.796350053782	939.544053674956	825.206475572773	190.535381200093	1386.831854926068	1228.386858633950	670.836225573852	1601.939132011696	1336.631815387827	576.996685730752	
